<svg xmlns="http://www.w3.org/2000/svg" width="128" height="128"><defs><clipPath id="a"><rect width="56.488" height="34.487" x="3.902" y="3.794" ry="0" fill="#dee0e1"/></clipPath></defs><path fill="#c5c6c7" fill-rule="evenodd" d="M48 12h32v8H48z"/><path d="M48 12l-8 8v8H10v42h108V28H88v-8l-8-8v16H48z" fill="#dee0e1"/><path d="M10 70v36c0 4 2 6 6 6h95c5 0 7-2 7-6V70z" fill="#e8e9ea"/><g><g transform="matrix(1.6818 0 0 1.6818 10.438 47.62)" clip-path="url(#a)"><path d="M.13 63.88V.136h63.727V63.88H.13zm29.978-4.147c.01.24.202.162.323.166 2.222.074 4.435.012 6.626-.407 5.985-1.146 11.106-3.898 15.276-8.347 4.687-5 7.2-10.95 7.56-17.795.107-2.05.004-4.1-.37-6.13-.477-2.598-1.21-5.11-2.452-7.458-.05-.134-.087-.277-.155-.402C51.89 10.09 44.127 4.932 33.612 4.162c-6.31-.46-12.14 1.22-17.387 4.8-2.942 2.007-5.43 4.473-7.387 7.46C6.402 20 4.902 23.937 4.32 28.23c-.458 3.383-.352 6.753.428 10.062 1.404 5.953 4.437 10.967 9.088 14.96 4.278 3.67 9.25 5.814 14.836 6.512.46.056.967.27 1.436-.033z" fill="none"/><path clip-rule="evenodd" d="M8.838 16.42c1.958-2.985 4.445-5.45 7.387-7.458 5.246-3.58 11.076-5.26 17.387-4.8 10.515.77 18.278 5.927 23.302 15.2.068.124.104.267.155.4l-21.05.027c-.642 0-1.282.015-1.924.023-.207-.01-.415-.01-.62-.034-2.86-.32-5.553.188-7.977 1.755-3.702 2.393-5.678 5.8-5.83 10.238-.05 1.404.236 2.754.533 4.107-.17-.068-.23-.23-.312-.372-2.35-4.073-4.7-8.148-7.055-12.22C11.51 21 10.17 18.71 8.838 16.422z" fill="#e53d33" fill-rule="evenodd"/><path clip-rule="evenodd" d="M34.097 19.814c.642-.01 1.282-.023 1.924-.024 7.018-.01 14.034-.018 21.05-.026 1.243 2.346 1.976 4.86 2.453 7.458.373 2.03.477 4.08.37 6.13-.36 6.845-2.874 12.795-7.56 17.796-4.17 4.448-9.292 7.2-15.277 8.347-2.19.42-4.403.48-6.625.406-.12-.003-.31.075-.322-.166 1.042-1.798 2.134-3.57 3.115-5.4 1.28-2.393 2.71-4.697 4.066-7.043 1.254-2.166 2.505-4.338 3.783-6.493.082-.138.202-.27.143-.456l-.007.008c.118-.005.124-.088.12-.177 1.834-2.214 2.91-4.735 2.99-7.624.126-4.475-1.67-8.025-5.28-10.658-1.482-1.08-3.174-1.674-4.943-2.074z" fill="#f6c700" fill-rule="evenodd"/><path clip-rule="evenodd" d="M41.216 40.34c.06.185-.06.317-.143.455-1.278 2.155-2.53 4.327-3.784 6.494-1.358 2.345-2.787 4.65-4.067 7.04-.98 1.832-2.073 3.605-3.115 5.402-.47.305-.975.09-1.435.033-5.587-.697-10.558-2.84-14.836-6.513-4.65-3.992-7.684-9.006-9.088-14.96-.78-3.308-.888-6.678-.43-10.06.583-4.295 2.083-8.23 4.52-11.812 1.332 2.29 2.67 4.576 3.997 6.87 2.355 4.07 4.705 8.145 7.056 12.218.082.143.14.304.312.37.083.19.175.374.248.565 2.665 7.07 11.18 10.09 17.717 6.287 1.128-.656 2.082-1.528 3.046-2.39z" fill="#4cad3f" fill-rule="evenodd"/><path clip-rule="evenodd" d="M41.216 40.34c-.964.862-1.918 1.734-3.048 2.392-6.537 3.802-15.052.783-17.717-6.287-.07-.19-.164-.376-.247-.564-.297-1.352-.583-2.7-.534-4.105.152-4.44 2.127-7.845 5.83-10.238 2.423-1.567 5.117-2.074 7.976-1.756.205.024.413.024.62.035 1.77.4 3.46.993 4.942 2.072 3.612 2.632 5.407 6.183 5.282 10.658-.08 2.89-1.157 5.41-2.99 7.625-.04.06-.08.118-.122.177l.008-.008zm-9.194-18.67c-5.773-.165-10.557 4.62-10.547 10.393.01 6 4.72 10.412 10.29 10.54 5.856.136 10.658-4.72 10.708-10.353.053-5.92-4.78-10.723-10.45-10.58z" fill="none"/><path clip-rule="evenodd" d="M41.21 40.346l.12-.177c.004.088-.002.17-.12.176z" fill="#4cad3f" fill-rule="evenodd"/><path clip-rule="evenodd" d="M32.022 21.67c5.67-.143 10.504 4.66 10.45 10.58-.05 5.632-4.85 10.488-10.706 10.353-5.57-.13-10.28-4.54-10.29-10.54-.01-5.772 4.773-10.557 10.546-10.394z" fill="#3b85c7" fill-rule="evenodd"/></g></g></svg>